<svg xmlns="http://www.w3.org/2000/svg" viewBox="0 0 900 410" width="900" height="410" role="img">
<defs>
  <pattern id="g" width="30" height="30" patternUnits="userSpaceOnUse">
    <path d="M30 0H0V30" fill="none" stroke="#0f1c27" stroke-width="1"/>
  </pattern>
  <linearGradient id="rule" x1="0" y1="0" x2="1" y2="0">
    <stop offset="0%" stop-color="#00f0ff" stop-opacity="0"/>
    <stop offset="22%" stop-color="#00f0ff"/>
    <stop offset="72%" stop-color="#ff2bd6"/>
    <stop offset="100%" stop-color="#ff2bd6" stop-opacity="0"/>
  </linearGradient>
</defs>
<rect width="900" height="410" rx="14" fill="#05070d"/>
<rect width="900" height="410" rx="14" fill="url(#g)" opacity="0.5"/>
<rect x="30" y="26" width="4" height="20" rx="2" fill="#00f0ff"/>
<text x="46" y="44" font-family='ui-monospace, "SF Mono", SFMono-Regular, "Cascadia Mono", Menlo, Consolas, monospace' font-size="18" font-weight="700" letter-spacing="4.5" fill="#00f0ff" text-anchor="start">ACHIEVEMENTS</text>
<rect x="30" y="62" width="840" height="1.5" fill="url(#rule)"/>
<rect x="30" y="88" width="405" height="60" rx="10" fill="#080d15" stroke="#16303f" stroke-width="1.5"/><circle cx="62" cy="118" r="13" fill="none" stroke="#00f0ff" stroke-width="1.5"/><path d="M56 118l4.5 5 9-10" fill="none" stroke="#00f0ff" stroke-width="2.4" stroke-linecap="round" stroke-linejoin="round"/><text x="86" y="115" font-family='ui-monospace, "SF Mono", SFMono-Regular, "Cascadia Mono", Menlo, Consolas, monospace' font-size="17" font-weight="700" letter-spacing="0.6" fill="#eafcff" text-anchor="start">First Commit</text><text x="86" y="134" font-family='ui-monospace, "SF Mono", SFMono-Regular, "Cascadia Mono", Menlo, Consolas, monospace' font-size="13" font-weight="400" letter-spacing="0.6" fill="#33475a" text-anchor="start">Push your first commit</text><rect x="465" y="88" width="405" height="60" rx="10" fill="#080d15" stroke="#16303f" stroke-width="1.5"/><circle cx="497" cy="118" r="13" fill="none" stroke="#00f0ff" stroke-width="1.5"/><path d="M491 118l4.5 5 9-10" fill="none" stroke="#00f0ff" stroke-width="2.4" stroke-linecap="round" stroke-linejoin="round"/><text x="521" y="115" font-family='ui-monospace, "SF Mono", SFMono-Regular, "Cascadia Mono", Menlo, Consolas, monospace' font-size="17" font-weight="700" letter-spacing="0.6" fill="#eafcff" text-anchor="start">Save File Created</text><text x="521" y="134" font-family='ui-monospace, "SF Mono", SFMono-Regular, "Cascadia Mono", Menlo, Consolas, monospace' font-size="13" font-weight="400" letter-spacing="0.6" fill="#33475a" text-anchor="start">Publish a profile README</text><rect x="30" y="160" width="405" height="60" rx="10" fill="#080d15" stroke="#16303f" stroke-width="1.5"/><circle cx="62" cy="190" r="13" fill="none" stroke="#33475a" stroke-width="1.5"/><rect x="57" y="188" width="10" height="8" rx="1.5" fill="#33475a"/><path d="M59 188v-3a3 3 0 0 1 6 0v3" fill="none" stroke="#33475a" stroke-width="1.6"/><text x="86" y="187" font-family='ui-monospace, "SF Mono", SFMono-Regular, "Cascadia Mono", Menlo, Consolas, monospace' font-size="17" font-weight="700" letter-spacing="0.6" fill="#6f8598" text-anchor="start">Ship It</text><text x="86" y="206" font-family='ui-monospace, "SF Mono", SFMono-Regular, "Cascadia Mono", Menlo, Consolas, monospace' font-size="13" font-weight="400" letter-spacing="0.6" fill="#33475a" text-anchor="start">Deploy something people can open</text><rect x="465" y="160" width="405" height="60" rx="10" fill="#080d15" stroke="#16303f" stroke-width="1.5"/><circle cx="497" cy="190" r="13" fill="none" stroke="#33475a" stroke-width="1.5"/><rect x="492" y="188" width="10" height="8" rx="1.5" fill="#33475a"/><path d="M494 188v-3a3 3 0 0 1 6 0v3" fill="none" stroke="#33475a" stroke-width="1.6"/><text x="521" y="187" font-family='ui-monospace, "SF Mono", SFMono-Regular, "Cascadia Mono", Menlo, Consolas, monospace' font-size="17" font-weight="700" letter-spacing="0.6" fill="#6f8598" text-anchor="start">Open Source</text><text x="521" y="206" font-family='ui-monospace, "SF Mono", SFMono-Regular, "Cascadia Mono", Menlo, Consolas, monospace' font-size="13" font-weight="400" letter-spacing="0.6" fill="#33475a" text-anchor="start">Land a merged PR elsewhere</text><rect x="30" y="232" width="405" height="60" rx="10" fill="#080d15" stroke="#16303f" stroke-width="1.5"/><circle cx="62" cy="262" r="13" fill="none" stroke="#33475a" stroke-width="1.5"/><rect x="57" y="260" width="10" height="8" rx="1.5" fill="#33475a"/><path d="M59 260v-3a3 3 0 0 1 6 0v3" fill="none" stroke="#33475a" stroke-width="1.6"/><text x="86" y="259" font-family='ui-monospace, "SF Mono", SFMono-Regular, "Cascadia Mono", Menlo, Consolas, monospace' font-size="17" font-weight="700" letter-spacing="0.6" fill="#6f8598" text-anchor="start">Hackathon</text><text x="86" y="278" font-family='ui-monospace, "SF Mono", SFMono-Regular, "Cascadia Mono", Menlo, Consolas, monospace' font-size="13" font-weight="400" letter-spacing="0.6" fill="#33475a" text-anchor="start">Build under a deadline</text><rect x="465" y="232" width="405" height="60" rx="10" fill="#080d15" stroke="#16303f" stroke-width="1.5"/><circle cx="497" cy="262" r="13" fill="none" stroke="#33475a" stroke-width="1.5"/><rect x="492" y="260" width="10" height="8" rx="1.5" fill="#33475a"/><path d="M494 260v-3a3 3 0 0 1 6 0v3" fill="none" stroke="#33475a" stroke-width="1.6"/><text x="521" y="259" font-family='ui-monospace, "SF Mono", SFMono-Regular, "Cascadia Mono", Menlo, Consolas, monospace' font-size="17" font-weight="700" letter-spacing="0.6" fill="#6f8598" text-anchor="start">Century</text><text x="521" y="278" font-family='ui-monospace, "SF Mono", SFMono-Regular, "Cascadia Mono", Menlo, Consolas, monospace' font-size="13" font-weight="400" letter-spacing="0.6" fill="#33475a" text-anchor="start">100 commits in one month</text><rect x="30" y="304" width="405" height="60" rx="10" fill="#080d15" stroke="#16303f" stroke-width="1.5"/><circle cx="62" cy="334" r="13" fill="none" stroke="#33475a" stroke-width="1.5"/><rect x="57" y="332" width="10" height="8" rx="1.5" fill="#33475a"/><path d="M59 332v-3a3 3 0 0 1 6 0v3" fill="none" stroke="#33475a" stroke-width="1.6"/><text x="86" y="331" font-family='ui-monospace, "SF Mono", SFMono-Regular, "Cascadia Mono", Menlo, Consolas, monospace' font-size="17" font-weight="700" letter-spacing="0.6" fill="#6f8598" text-anchor="start">Constellation</text><text x="86" y="350" font-family='ui-monospace, "SF Mono", SFMono-Regular, "Cascadia Mono", Menlo, Consolas, monospace' font-size="13" font-weight="400" letter-spacing="0.6" fill="#33475a" text-anchor="start">First star from a stranger</text><rect x="465" y="304" width="405" height="60" rx="10" fill="#080d15" stroke="#16303f" stroke-width="1.5"/><circle cx="497" cy="334" r="13" fill="none" stroke="#33475a" stroke-width="1.5"/><rect x="492" y="332" width="10" height="8" rx="1.5" fill="#33475a"/><path d="M494 332v-3a3 3 0 0 1 6 0v3" fill="none" stroke="#33475a" stroke-width="1.6"/><text x="521" y="331" font-family='ui-monospace, "SF Mono", SFMono-Regular, "Cascadia Mono", Menlo, Consolas, monospace' font-size="17" font-weight="700" letter-spacing="0.6" fill="#6f8598" text-anchor="start">Streak Runner</text><text x="521" y="350" font-family='ui-monospace, "SF Mono", SFMono-Regular, "Cascadia Mono", Menlo, Consolas, monospace' font-size="13" font-weight="400" letter-spacing="0.6" fill="#33475a" text-anchor="start">30-day contribution streak</text><text x="450" y="392" font-family='ui-monospace, "SF Mono", SFMono-Regular, "Cascadia Mono", Menlo, Consolas, monospace' font-size="13" font-weight="400" letter-spacing="1.6" fill="#33475a" text-anchor="middle">2 / 8 UNLOCKED  ·  LOCKED ENTRIES ARE REAL GOALS, NOT DECORATION</text>
<rect x="0.75" y="0.75" width="898.5" height="408.5" rx="14" fill="none" stroke="#16303f" stroke-width="1.5"/>
</svg>